# xmcd CD database file
#
# Track frame offsets:
#	150
#	45158
#	73934
#	105613
#	145355
#	171175
#	207242
#	246152
#
# Disc length: 4440 seconds
#
# Revision: 0
# Processed by: cddbd v1.5.1PL0 Copyright (c) Steve Scherf et al.
# Submitted via: CDex 1.50
#
DISCID=71115608
DTITLE=Sonny Rollins - That's Jazz - Sonny Rollins Collection
DYEAR=2003
DGENRE=Jazz
TTITLE0=Plain Jane
TTITLE1=You Stepped Out Of A Dream
TTITLE2=Reflections
TTITLE3=Sonnymoon For Two
TTITLE4=Why Don't I
TTITLE5=Decision
TTITLE6=Poor Butterfly
TTITLE7=Data Track
EXTD=YEAR: 2003
EXTT0=
EXTT1=
EXTT2=
EXTT3=
EXTT4=
EXTT5=
EXTT6=
EXTT7=
PLAYORDER=
